<?xml version="1.0" encoding="UTF-8"?>
<!DOCTYPE svg PUBLIC "-//W3C//DTD SVG 1.1//EN" "http://www.w3.org/Graphics/SVG/1.1/DTD/svg11.dtd">
<svg xmlns="http://www.w3.org/2000/svg" version="1.1" width="478px" height="478px" style="shape-rendering:geometricPrecision; text-rendering:geometricPrecision; image-rendering:optimizeQuality; fill-rule:evenodd; clip-rule:evenodd" xmlns:xlink="http://www.w3.org/1999/xlink">
<g><path style="opacity:1" fill="#ef8234" d="M 98.5,-0.5 C 192.167,-0.5 285.833,-0.5 379.5,-0.5C 409.63,2.89573 434.297,16.2291 453.5,39.5C 453.427,41.0269 454.094,42.0269 455.5,42.5C 461.564,49.605 466.397,57.605 470,66.5C 473.309,75.4175 475.809,84.4175 477.5,93.5C 477.5,190.167 477.5,286.833 477.5,383.5C 476.745,386.053 476.078,388.72 475.5,391.5C 473.837,393.438 473.171,395.772 473.5,398.5C 464.101,432.408 443.101,456.241 410.5,470C 401.284,473.468 391.951,475.968 382.5,477.5C 286.833,477.5 191.167,477.5 95.5,477.5C 76.6132,474.985 59.6132,467.985 44.5,456.5C 44.0269,455.094 43.0269,454.427 41.5,454.5C 31.7448,447.413 23.7448,438.746 17.5,428.5C 17.7148,426.821 17.0481,425.821 15.5,425.5C 10.2805,417.513 6.61385,408.847 4.5,399.5C 4.82943,396.772 4.16276,394.438 2.5,392.5C 1.3009,386.768 0.300902,381.101 -0.5,375.5C -0.5,284.167 -0.5,192.833 -0.5,101.5C 0.300902,95.8986 1.3009,90.2319 2.5,84.5C 4.16276,82.5615 4.82943,80.2282 4.5,77.5C 8.64015,60.8745 16.6401,46.5411 28.5,34.5C 32.4356,32.2343 35.7689,29.2343 38.5,25.5C 48.442,16.0228 60.1086,9.3561 73.5,5.5C 75.8984,5.74061 77.8984,5.07394 79.5,3.5C 85.863,1.83256 92.1964,0.499228 98.5,-0.5 Z"/></g>
<g><path style="opacity:1" fill="#fcc599" d="M 79.5,3.5 C 77.8984,5.07394 75.8984,5.74061 73.5,5.5C 75.2143,4.26162 77.2143,3.59495 79.5,3.5 Z"/></g>
<g><path style="opacity:1" fill="#fab177" d="M 38.5,25.5 C 35.7689,29.2343 32.4356,32.2343 28.5,34.5C 31.2311,30.7657 34.5644,27.7657 38.5,25.5 Z"/></g>
<g><path style="opacity:1" fill="#fcc391" d="M 453.5,39.5 C 454.906,39.9731 455.573,40.9731 455.5,42.5C 454.094,42.0269 453.427,41.0269 453.5,39.5 Z"/></g>
<g><path style="opacity:1" fill="#fabb89" d="M 4.5,77.5 C 4.82943,80.2282 4.16276,82.5615 2.5,84.5C 2.72148,81.9327 3.38815,79.5994 4.5,77.5 Z"/></g>
<g><path style="opacity:1" fill="#fefefd" d="M 161.5,116.5 C 176.92,115.992 192.253,116.825 207.5,119C 219.294,121.895 229.628,127.395 238.5,135.5C 255.38,121.485 274.88,115.152 297,116.5C 324.639,116.538 351.805,120.038 378.5,127C 382.058,128.892 384.558,131.725 386,135.5C 386.667,203.167 386.667,270.833 386,338.5C 383.407,345.719 378.24,349.386 370.5,349.5C 341.173,343.103 311.506,340.603 281.5,342C 267.454,344.024 256.121,350.691 247.5,362C 242.289,364.766 236.956,365.099 231.5,363C 224.572,354.211 215.906,347.877 205.5,344C 180.484,340.648 155.484,340.981 130.5,345C 122.491,346.503 114.491,348.003 106.5,349.5C 98.1776,349.016 93.011,344.683 91,336.5C 90.3333,270.167 90.3333,203.833 91,137.5C 92.7425,132.09 96.2425,128.256 101.5,126C 121.447,121.557 141.447,118.391 161.5,116.5 Z"/></g>
<g><path style="opacity:1" fill="#ef8233" d="M 158.5,137.5 C 172.537,137.158 186.537,137.658 200.5,139C 212.756,141.027 221.589,147.527 227,158.5C 227.667,216.5 227.667,274.5 227,332.5C 218.507,326.332 209.007,322.498 198.5,321C 183.833,320.333 169.167,320.333 154.5,321C 140.783,322.589 127.116,324.423 113.5,326.5C 113.5,265.833 113.5,205.167 113.5,144.5C 128.649,142.251 143.649,139.918 158.5,137.5 Z"/></g>
<g><path style="opacity:1" fill="#ef8233" d="M 251.5,331.5 C 250.501,275.002 250.168,218.336 250.5,161.5C 252.765,151.063 259.098,144.229 269.5,141C 287.652,137.052 305.985,136.385 324.5,139C 337.978,140.351 351.312,142.518 364.5,145.5C 364.5,205.833 364.5,266.167 364.5,326.5C 337.066,321.35 309.4,319.517 281.5,321C 270.518,321.827 260.518,325.327 251.5,331.5 Z"/></g>
<g><path style="opacity:1" fill="#f9dabc" d="M 250.5,161.5 C 250.168,218.336 250.501,275.002 251.5,331.5C 251.44,332.043 251.107,332.376 250.5,332.5C 249.169,275.335 249.169,218.335 250.5,161.5 Z"/></g>
<g><path style="opacity:1" fill="#fabc89" d="M 475.5,391.5 C 475.279,394.067 474.612,396.401 473.5,398.5C 473.171,395.772 473.837,393.438 475.5,391.5 Z"/></g>
<g><path style="opacity:1" fill="#fabc8a" d="M 2.5,392.5 C 4.16276,394.438 4.82943,396.772 4.5,399.5C 3.38815,397.401 2.72148,395.067 2.5,392.5 Z"/></g>
<g><path style="opacity:1" fill="#fcc295" d="M 15.5,425.5 C 17.0481,425.821 17.7148,426.821 17.5,428.5C 16.5987,427.71 15.9321,426.71 15.5,425.5 Z"/></g>
<g><path style="opacity:1" fill="#fcc391" d="M 41.5,454.5 C 43.0269,454.427 44.0269,455.094 44.5,456.5C 42.9731,456.573 41.9731,455.906 41.5,454.5 Z"/></g>
</svg>
